<svg xmlns="http://www.w3.org/2000/svg" width="512" height="512" viewBox="0 0 512 512" role="img" aria-labelledby="title">
  <title id="title">DeepWheel</title>
  <rect width="512" height="512" fill="#000000"/>
  <rect x="38" y="38" width="436" height="436" rx="104" fill="#0B0F15" stroke="#27303C" stroke-width="4"/>
  <g transform="translate(74 83) scale(1.67)">
    <path fill="#F5F7FA" d="M37 115V68C37 46 55 28 76 28H153C159 28 162 32 162 38V113C162 135 145 151 124 151H115C111 151 108 148 108 144V130C108 126 111 123 115 123H123C129 123 132 119 132 113V63C132 59 129 56 125 56H79C72 56 67 61 67 68V113C67 116 65 117 62 117H39C38 117 37 116 37 115Z"/>
    <circle cx="87.5" cy="137.5" r="14.99" fill="#0071E3"/>
  </g>
</svg>
